cd ..
        <?xml version="1.0" standalone="no"?><!DOCTYPE svg PUBLIC "-//W3C//DTD SVG 1.1//EN" "http://www.w3.org/Graphics/SVG/1.1/DTD/svg11.dtd"><svg t="1565937260600" class="icon" viewBox="0 0 1024 1024" version="1.1" xmlns="http://www.w3.org/2000/svg" p-id="2633" xmlns:xlink="http://www.w3.org/1999/xlink" width="200" height="200"><defs><style type="text/css"></style></defs><path d="M657.408 962.56C414.208 1037.312 156.16 900.608 81.92 657.408S143.872 156.16 387.072 81.92 888.32 143.872 962.56 387.072c74.752 243.2-61.952 501.248-305.152 575.488z m92.16-526.336c10.752-33.28 11.264-68.608 0.512-102.4-26.112-84.48-110.08-133.632-187.904-110.08l-22.528 6.656-35.84-117.76c-2.048-6.656-9.216-10.752-15.872-8.704l-40.96 12.288c-6.656 2.048-10.752 9.216-8.704 15.872L474.624 250.88 409.6 271.36l-36.352-118.272c-2.048-6.656-9.216-10.752-15.872-8.704l-40.96 12.288c-6.656 2.048-10.752 9.216-8.704 15.872l36.352 118.272-134.656 41.472c-6.656 2.048-10.752 9.216-8.704 15.872l12.8 41.472c2.048 6.144 8.192 10.24 14.848 8.704 47.104-9.728 81.408 13.312 93.184 51.2L399.36 702.976c10.24 34.304 1.024 66.56-36.352 81.92-5.12 2.048-8.704 7.68-8.192 13.312l5.12 44.032c1.024 7.168 7.168 11.776 13.824 11.264 1.024 0 1.536 0 2.56-0.512l128-39.424 36.352 118.272c2.048 6.656 9.216 10.752 15.872 8.704l40.96-12.288c6.656-2.048 10.752-9.216 8.704-15.872l-36.352-118.272L634.88 773.12l36.352 118.272c2.048 6.656 9.216 10.752 15.872 8.704l40.96-12.288c6.656-2.048 10.752-9.216 8.704-15.872l-36.352-118.272 55.296-16.896c77.824-24.064 119.808-110.592 94.208-194.048-15.872-52.224-54.784-90.624-100.352-106.496z m-321.536-45.568l143.872-44.032c32.768-10.24 58.88 6.144 67.072 32.768 8.192 27.136-4.608 54.784-36.864 65.024l-143.872 44.032-30.208-97.792z m278.016 236.032l-187.904 57.856-30.208-97.792 187.904-57.856c36.352-11.264 63.488 4.608 71.68 31.744s-4.608 54.784-41.472 66.048z" fill="#FFA300" p-id="2634"></path></svg>
