<?xml version="1.0" standalone="no"?><!DOCTYPE svg PUBLIC "-//W3C//DTD SVG 1.1//EN" "http://www.w3.org/Graphics/SVG/1.1/DTD/svg11.dtd"><svg t="1564382728419" class="icon" viewBox="0 0 1024 1024" version="1.1" xmlns="http://www.w3.org/2000/svg" p-id="1773" xmlns:xlink="http://www.w3.org/1999/xlink" width="200" height="200"><defs><style type="text/css"></style></defs><path d="M1006.08 514.048c0 271.36-220.16 491.52-491.52 491.52s-491.52-220.16-491.52-491.52 220.16-491.52 491.52-491.52 491.52 220.16 491.52 491.52z m-626.176-66.56c-1.024-9.216-3.584-17.408-7.68-24.064s-10.24-12.288-17.408-16.384-15.36-7.168-24.064-9.728c-8.704-2.048-18.432-3.584-29.696-4.608V339.968h-32.256v51.712c-5.632 0-14.336 0-25.6 0.512V339.968h-32.256v53.248H145.92v34.304h23.552c10.752 0 16.896 4.608 18.944 14.336v60.416h3.584-3.584v84.48c-1.024 7.168-5.12 10.752-12.288 10.752h-23.552l-6.656 38.4h41.984c2.56 0 6.656-0.512 11.776-1.024 5.12-0.512 8.704-1.024 11.264-1.024v53.76h32.256V634.88h25.6v52.736h32.256v-53.76c11.264-0.512 21.504-1.536 30.72-3.072s17.408-4.096 25.6-7.168c8.192-3.072 14.848-7.168 20.48-12.288s10.24-11.264 13.824-18.944c3.584-7.68 5.632-16.384 6.656-26.112 2.048-19.456-1.536-34.304-9.728-45.056-8.192-10.752-20.48-17.92-36.864-21.504 20.992-10.752 30.208-28.672 27.648-54.272v2.048z m-45.056 114.688c0 4.096-0.512 7.68-2.048 10.752-1.536 3.072-3.072 6.144-5.12 8.192-2.048 2.56-5.12 4.608-8.192 6.144-3.584 2.048-6.656 3.072-10.24 4.608-3.072 1.024-7.168 2.048-11.776 3.072-4.608 1.024-8.704 1.536-11.776 1.536-3.584 0.512-7.68 0.512-12.288 1.024-4.608 0-8.704 0.512-11.264 0.512-2.56 0-6.144-0.512-10.24-1.024s-6.656-1.024-7.68-1.024v-71.168h24.064c3.584 0 8.192 0 14.336 0.512 6.144 0.512 11.264 1.024 15.36 2.048s8.704 2.048 13.824 4.096c5.12 1.536 9.216 4.096 12.288 6.656 3.072 2.56 5.632 5.632 7.68 9.728 2.048 4.096 3.072 8.192 3.072 13.312v1.024z m-14.848-100.352c0 3.072-0.512 6.656-2.048 10.752-1.024 4.096-3.072 6.656-5.632 8.192-2.56 1.536-5.12 3.584-7.68 5.632-2.56 2.048-6.144 3.584-10.24 4.096-4.096 0.512-7.68 1.024-10.752 2.56-3.072 1.024-7.168 1.536-11.776 1.024-4.608-0.512-8.192-0.512-10.752 0.512-2.56 0.512-5.632 0.512-9.728 0-4.096-0.512-6.656-1.024-7.168-1.024V428.544c1.024-0.512 3.584-1.024 8.192-1.024h11.264c3.072 0 7.168 0 12.288 0.512s9.216 1.024 12.8 1.536 7.168 2.048 11.776 3.584c4.096 1.536 7.68 3.584 10.24 6.144s4.608 5.12 6.656 8.704c1.536 3.584 2.56 7.68 2.56 12.288v1.536zM563.2 386.048c-24.064 0-43.008 2.048-58.368 5.632-14.848 4.096-27.648 10.24-38.4 19.968-26.624 22.528-39.936 57.344-39.936 103.424 0 38.4 11.264 70.144 33.792 94.72 11.776 13.312 25.088 22.528 40.448 27.648s35.84 8.192 62.464 8.192h97.28v-55.296h-76.8c-14.848 0-26.624-1.024-34.816-3.072-8.192-2.048-15.872-5.632-23.04-10.24-17.408-12.8-26.112-33.28-26.112-60.928 0-25.088 5.12-43.52 15.872-55.296 11.264-12.8 30.72-18.944 59.904-18.944H660.48V386.048h-97.28z m271.872 0c-24.064 0-43.008 2.048-58.368 5.632-14.848 4.096-27.648 10.24-38.4 19.968-26.624 22.528-39.936 57.344-39.936 103.424 0 38.4 11.264 70.144 33.792 94.72 11.776 13.312 25.088 22.528 40.448 27.648s35.84 8.192 62.464 8.192h97.792v-55.296h-76.8c-14.848 0-26.624-1.024-34.816-3.072-8.192-2.048-15.872-5.632-23.04-10.24-17.408-12.8-26.112-33.28-26.112-60.928 0-25.088 5.12-43.52 15.872-55.296 11.264-12.8 30.72-18.944 59.904-18.944h85.504V386.048h-98.304z" fill="#EEAB43" p-id="1774"></path></svg>