<?xml version="1.0" standalone="no"?><!DOCTYPE svg PUBLIC "-//W3C//DTD SVG 1.1//EN" "http://www.w3.org/Graphics/SVG/1.1/DTD/svg11.dtd"><svg t="1563531350209" class="icon" viewBox="0 0 1029 1024" version="1.1" xmlns="http://www.w3.org/2000/svg" p-id="2095" xmlns:xlink="http://www.w3.org/1999/xlink" width="200.9765625" height="200"><defs><style type="text/css"></style></defs><path d="M514.56 1016.32c-273.92 0-496.64-222.72-496.64-496.64s222.72-496.64 496.64-496.64 496.64 222.72 496.64 496.64-222.72 496.64-496.64 496.64z m0-977.92c-265.216 0-481.28 216.064-481.28 481.28s216.064 481.28 481.28 481.28 481.28-216.064 481.28-481.28-216.064-481.28-481.28-481.28z" fill="#E2E2E2" p-id="2096"></path><path d="M234.496 408.576h77.312L358.4 610.304H265.216l7.68-38.912h23.552l-31.232-108.544-69.632 108.544h23.04v38.912H102.4L234.496 408.576z m591.36-15.36c-26.112 0-46.592 2.048-63.488 5.12-16.384 3.584-30.208 9.216-41.984 17.92-29.184 20.48-43.52 52.224-43.52 93.696 0 34.816 12.288 63.488 36.864 86.016 12.8 12.288 27.136 20.48 44.032 25.088 16.896 4.608 38.912 7.68 68.096 7.68H931.84V578.56h-83.456c-16.384 0-29.184-1.024-37.888-2.56-8.704-2.048-17.408-5.12-25.088-9.216-18.944-11.776-28.16-30.208-28.16-55.296 0-22.528 5.632-39.424 17.408-50.176 12.288-11.776 33.28-17.408 65.024-17.408h92.16V393.216h-105.984zM571.392 567.808l-87.04-0.512c-11.264 0-20.48-9.216-20.48-20.48s9.216-20.48 20.48-20.48l87.04 0.512c11.264 0 20.48 9.216 20.48 20.48s-9.216 20.48-20.48 20.48z m-1.024-77.312l-87.04-0.512c-11.264 0-20.48-9.216-20.48-20.48s9.216-20.48 20.48-20.48l87.04 0.512c11.264 0 20.48 9.216 20.48 20.48s-9.216 20.48-20.48 20.48z m59.904-35.84c-1.024-7.68-3.584-14.848-7.68-20.48s-10.24-10.24-17.408-13.824c-7.168-3.584-15.36-6.144-24.064-8.192-8.704-1.536-18.432-3.072-29.696-3.584V363.52h-32.256v44.032c-5.632 0-14.336 0-25.6 0.512V363.52h-32.256v45.568H396.8v29.184h23.552c10.752 0 16.896 4.096 18.944 12.288l1.024 52.224h3.584-3.584l0.512 72.192c-1.024 6.144-5.12 9.216-12.288 9.216h-23.552l-6.656 32.768h41.472c2.56 0 6.656-0.512 11.776-1.024 5.12-0.512 8.704-1.024 11.264-1.024v46.08h32.256v-45.056h25.6v45.056H552.96v-46.08c11.264-0.512 21.504-1.536 30.72-2.56 9.216-1.024 17.408-3.584 25.6-6.144s14.848-6.144 20.48-10.752c5.632-4.608 10.24-9.728 13.824-16.384 3.584-6.656 5.632-13.824 6.656-22.528 2.048-16.896-1.536-29.184-9.728-38.4-8.192-9.216-20.48-15.36-36.864-18.432 20.992-9.216 29.696-24.576 27.136-46.592l-0.512 1.536z" fill="#F29B0C" p-id="2097"></path></svg>