<?xml version="1.0" standalone="no"?><!DOCTYPE svg PUBLIC "-//W3C//DTD SVG 1.1//EN" "http://www.w3.org/Graphics/SVG/1.1/DTD/svg11.dtd"><svg t="1565937253406" class="icon" viewBox="0 0 1024 1024" version="1.1" xmlns="http://www.w3.org/2000/svg" p-id="2517" xmlns:xlink="http://www.w3.org/1999/xlink" width="200" height="200"><defs><style type="text/css"></style></defs><path d="M510.464 510.464m-475.136 0a475.136 475.136 0 1 0 950.272 0 475.136 475.136 0 1 0-950.272 0Z" fill="#FFFFFF" p-id="2518"></path><path d="M510.464 998.4c-268.288 0-487.424-219.136-487.424-487.936S242.176 23.04 510.464 23.04 998.4 242.176 998.4 510.464 779.264 998.4 510.464 998.4z m0-949.248C256 49.152 49.152 256 49.152 510.464S256 972.8 511.488 972.8s462.336-206.848 462.336-462.336S765.44 49.152 510.464 49.152z" fill="#E2E2E2" p-id="2519"></path><path d="M315.392 436.736S251.904 420.864 251.904 404.48l270.848-239.616s48.128-32.256 80.384 0l221.696 271.872s28.16 32.256-15.872 80.384l-303.104 270.848s-48.128 48.128-95.744 0l-191.488-239.616s63.488-32.256 80.384-15.872" fill="#F99320" p-id="2520"></path><path d="M377.342579 699.981432a188.928 242.688 30 1 0 242.688-420.347947 188.928 242.688 30 1 0-242.688 420.347947Z" fill="#FFFFFF" p-id="2521"></path><path d="M180.736 510.976s-37.888-37.888 0-70.144c0 0 37.888-32.256 75.264 0 0 0 32.256 26.624 75.264 32.256 0 0-48.128 15.872-75.264 37.888 0 0-37.376 32.256-75.264 0zM251.904 404.48l270.848-239.616s44.544-46.592 80.384 0M603.136 517.632c13.824-8.704 24.576-21.504 31.232-36.352 16.384-37.888 1.024-80.896-33.792-95.744l-10.24-4.096 22.528-53.248c1.536-3.072 0-6.656-3.072-7.68l-18.432-7.68c-3.072-1.536-6.656 0-7.68 3.072L561.152 368.64l-29.184-12.8 22.528-53.248c1.536-3.072 0-6.656-3.072-7.68l-18.432-7.68c-3.072-1.536-6.656 0-7.68 3.072l-22.528 53.248L441.856 317.44c-3.072-1.536-6.656 0-7.68 3.072l-7.68 18.432c-1.024 3.072 0 6.144 2.56 7.68 19.968 10.752 25.088 29.184 17.92 46.592L397.824 506.88c-6.656 15.36-19.456 24.064-37.888 18.432-2.56-1.024-5.12 0-6.656 2.048l-11.264 17.408c-2.048 2.56-1.024 6.144 1.536 8.192 0.512 0 0.512 0.512 1.024 0.512l57.856 24.576-22.528 53.248c-1.536 3.072 0 6.656 3.072 7.68l18.432 7.68c3.072 1.536 6.656 0 7.68-3.072l22.528-53.248 29.184 12.8-22.528 53.248c-1.536 3.072 0 6.656 3.072 7.68l18.432 7.68c3.072 1.536 6.656 0 7.68-3.072l22.528-53.248 24.576 10.752c34.816 14.848 76.288-3.072 92.16-40.96 10.24-23.04 8.192-48.128-3.584-67.584z" fill="#F99320" p-id="2522"></path><path d="M502.272 404.48l64.512 27.648c14.848 6.144 18.944 19.968 13.824 32.256s-17.92 18.432-32.768 11.776l-64.512-27.648 18.944-44.032zM530.432 572.416l-84.48-36.352 18.944-44.032 84.48 36.352c16.384 7.168 21.504 20.992 15.872 32.768-5.12 12.288-18.432 18.432-34.816 11.264z" fill="#FFFFFF" p-id="2523"></path></svg>