<?xml version="1.0" standalone="no"?><!DOCTYPE svg PUBLIC "-//W3C//DTD SVG 1.1//EN" "http://www.w3.org/Graphics/SVG/1.1/DTD/svg11.dtd"><svg t="1568945406817" class="icon" viewBox="0 0 1024 1024" version="1.1" xmlns="http://www.w3.org/2000/svg" p-id="6434" xmlns:xlink="http://www.w3.org/1999/xlink" width="200" height="200"><defs><style type="text/css"></style></defs><path d="M505.344 30.208c262.656 0 475.136 212.48 475.136 475.136s-212.48 475.136-475.136 475.136S30.208 768 30.208 505.344 242.688 30.208 505.344 30.208z" fill="#F9B800" p-id="6435"></path><path d="M845.824 581.632l-80.384-80.384 80.384-80.384 80.384 80.384-80.384 80.384z m-253.44-80.384L512 420.864 431.616 501.248l80.384 80.384 80.384-80.384z m-333.312-11.264L178.176 409.6 97.792 489.984l80.384 80.384 80.896-80.384z m519.68 161.792L691.2 565.248l-180.736 182.784L327.68 567.296l-86.528 87.552 270.336 267.264 267.264-270.336zM509.44 250.88L691.2 432.64l87.04-87.04L509.44 76.8 241.152 345.6l87.04 87.04L509.44 250.88z" fill="#FFFFFF" p-id="6436"></path></svg>