<?xml version="1.0" standalone="no"?><!DOCTYPE svg PUBLIC "-//W3C//DTD SVG 1.1//EN" "http://www.w3.org/Graphics/SVG/1.1/DTD/svg11.dtd"><svg t="1562143276520" class="icon" viewBox="0 0 1024 1024" version="1.1" xmlns="http://www.w3.org/2000/svg" p-id="1334" xmlns:xlink="http://www.w3.org/1999/xlink" width="200" height="200"><defs><style type="text/css"></style></defs><path d="M512 972.8a460.8 460.8 0 1 1 0-921.6 460.8 460.8 0 0 1 0 921.6z m242.5856-476.3648a168.3456 168.3456 0 0 0 30.5664-97.4848c0-88.3712-65.9456-160.0512-147.2512-160.0512h-23.4496V115.2a12.8 12.8 0 0 0-12.8-12.8h-42.7008a12.8 12.8 0 0 0-12.8 12.8v123.6992H477.9008V115.2a12.8 12.8 0 0 0-12.8-12.8H422.4a12.8 12.8 0 0 0-12.8 12.8v123.6992H268.8a12.8 12.8 0 0 0-12.8 12.8v43.1104c0 6.6048 4.9152 12.288 11.52 12.9024 48.0768 4.4032 73.8304 36.6592 73.8304 76.288v264.5504c0 35.6352-18.432 63.9488-58.624 67.7888a12.8 12.8 0 0 0-11.52 10.24l-8.1408 43.52a12.6464 12.6464 0 0 0 12.4416 15.0016H409.6v123.6992c0 7.0656 5.7344 12.8 12.8 12.8h42.6496a12.8 12.8 0 0 0 12.8-12.8v-123.6992h68.2496v123.6992c0 7.0656 5.7856 12.8 12.8 12.8h42.7008a12.8 12.8 0 0 0 12.8-12.8v-123.6992h57.6c81.3056 0 147.2-70.656 147.2-157.9008 0.1024-54.4256-25.6-102.4-64.6144-130.7648zM460.8 358.4h150.3232C645.2736 358.4 665.6 381.3376 665.6 409.6s-20.3264 51.2-54.4768 51.2H460.8V358.4z m196.608 307.2H460.8v-102.4h196.608c38.0928 0 59.392 22.9376 59.392 51.2s-21.2992 51.2-59.392 51.2z" fill="#ffa300" p-id="1335"></path></svg>