<?xml version="1.0" standalone="no"?><!DOCTYPE svg PUBLIC "-//W3C//DTD SVG 1.1//EN" "http://www.w3.org/Graphics/SVG/1.1/DTD/svg11.dtd"><svg t="1562142940538" class="icon" viewBox="0 0 1024 1024" version="1.1" xmlns="http://www.w3.org/2000/svg" p-id="8328" xmlns:xlink="http://www.w3.org/1999/xlink" width="200" height="200"><defs><style type="text/css"></style></defs><path d="M512 972.8a460.8 460.8 0 1 1 0-921.6 460.8 460.8 0 0 1 0 921.6zM318.4128 262.4l-41.984-45.2608a41.8816 41.8816 0 0 0-59.3408 0 42.2912 42.2912 0 0 0 0 59.5968l42.0352 45.2608a41.8304 41.8304 0 0 0 59.2896 0 42.2912 42.2912 0 0 0 0-59.5968z m272.7424 57.1904l-98.9696-102.4a41.8816 41.8816 0 0 0-59.3408 0 42.2912 42.2912 0 0 0 0 59.5456v0.0512l98.9696 102.4512a41.8816 41.8816 0 0 0 59.392 0 42.4448 42.4448 0 0 0 0-59.648z m215.7568 0l-98.9696-102.4a41.8816 41.8816 0 0 0-59.3408 0 42.2912 42.2912 0 0 0 0 59.5456l99.0208 102.5024a41.8304 41.8304 0 0 0 59.2896 0 42.3424 42.3424 0 0 0 0-59.648zM375.3984 530.432l-99.0208-102.4a41.8304 41.8304 0 0 0-59.2896 0 42.2912 42.2912 0 0 0 0 59.5456l98.9696 102.5024a41.8816 41.8816 0 0 0 59.392 0 42.4448 42.4448 0 0 0 0-59.648z m275.712 66.2528L429.312 367.8208a41.8304 41.8304 0 0 0-59.2896 0 42.1888 42.1888 0 0 0 0 59.5456v0.0512l221.7472 228.864a41.7792 41.7792 0 0 0 59.3408 0 42.3936 42.3936 0 0 0 0-59.648z m155.8016-66.2528l-98.9696-102.4a41.8816 41.8816 0 0 0-59.3408 0 42.2912 42.2912 0 0 0 0 59.5456l99.0208 102.5024a41.8304 41.8304 0 0 0 59.2896 0 42.3424 42.3424 0 0 0 0-59.648z m-431.5136 216.8832l-99.0208-102.5024a41.8816 41.8816 0 0 0-59.2896 0 42.3424 42.3424 0 0 0 0 59.648l98.9696 102.4a41.7792 41.7792 0 0 0 59.392 0 42.3936 42.3936 0 0 0 0-59.5456z m215.7568 0l-98.9696-102.5024a41.984 41.984 0 0 0-59.3408 0 42.3424 42.3424 0 0 0 0 59.648l98.9696 102.4a41.7792 41.7792 0 0 0 59.392 0 42.3936 42.3936 0 0 0 0-59.5456z m215.7568 0l-44.9536-45.2096a41.8816 41.8816 0 0 0-59.3408 0 42.3936 42.3936 0 0 0 0 59.5968l0.0512 0.1024 44.9536 45.056a41.728 41.728 0 0 0 59.2896 0 42.2912 42.2912 0 0 0 0-59.5456z" fill="#0C80EA" p-id="8329"></path></svg>