<?xml version="1.0" standalone="no"?><!DOCTYPE svg PUBLIC "-//W3C//DTD SVG 1.1//EN" "http://www.w3.org/Graphics/SVG/1.1/DTD/svg11.dtd"><svg t="1562142926008" class="icon" viewBox="0 0 1024 1024" version="1.1" xmlns="http://www.w3.org/2000/svg" p-id="7991" xmlns:xlink="http://www.w3.org/1999/xlink" width="200" height="200"><defs><style type="text/css"></style></defs><path d="M509.44 514.56m-473.6 0a473.6 473.6 0 1 0 947.2 0 473.6 473.6 0 1 0-947.2 0Z" p-id="7992"></path><path d="M509.44 784.384l-207.872-132.096 69.632-279.04 138.24-203.264 136.704 203.264 71.168 279.04-207.872 132.096z m-196.608-136.704l196.096 124.416 196.608-124.416-69.12-270.336-127.488-189.44-128.512 189.44-67.584 270.336z" fill="#FFFFFF" p-id="7993"></path><path d="M504.32 179.2h10.24v138.24h-10.24z" fill="#FFFFFF" p-id="7994"></path><path d="M705.024 645.12H313.856l194.56-343.04 196.608 343.04z m-373.76-10.24h356.352l-179.2-312.32-177.152 312.32z" fill="#FFFFFF" p-id="7995"></path><path d="M508.416 789.504L373.76 375.296l10.24-3.072 124.928 384.512L634.88 372.224l10.24 3.072z" fill="#FFFFFF" p-id="7996"></path></svg>