<?xml version="1.0" encoding="UTF-8"?>
<svg width="17px" height="17px" viewBox="0 0 17 17" version="1.1" xmlns="http://www.w3.org/2000/svg" xmlns:xlink="http://www.w3.org/1999/xlink">
    <!-- Generator: Sketch 55.1 (78136) - https://sketchapp.com -->
    <title>收款管理</title>
    <desc>Created with Sketch.</desc>
    <g id="页面1" stroke="none" stroke-width="1" fill="none" fill-rule="evenodd">
        <g id="转入" transform="translate(-66.000000, -638.000000)">
            <rect id="矩形" fill="#FFFFFF" x="0" y="0" width="375" height="667"></rect>
            <rect id="矩形" fill="#F5F5F5" x="0" y="623" width="375" height="44"></rect>
            <g id="收款管理" transform="translate(66.000000, 638.000000)" fill-rule="nonzero">
                <rect id="矩形" fill="#FFFFFF" opacity="0" x="0" y="0" width="17" height="17"></rect>
                <path d="M16.5641026,8.39437135 C16.3461538,8.18311404 16.0192308,8.07748538 15.6923077,8.07748538 L14.0576923,8.07748538 L14.0576923,2.37353801 C14.0576923,1.42288012 13.5128205,0.894736842 12.5320513,0.894736842 L4.46794872,0.894736842 C3.92307692,0.894736842 3.59615385,1.0003655 3.26923077,1.31725146 C2.94230769,1.52850877 2.83333333,1.84539474 2.83333333,2.37353801 L2.83333333,7.97185673 L0.980769231,7.97185673 C0.435897436,8.18311404 0,8.71125731 0,9.23940058 C0,9.55628655 0.108974359,9.76754386 0.326923077,10.0844298 L6.86538462,15.5771199 C7.41025641,15.8940058 7.84615385,16.1052632 8.5,16.1052632 C9.15384615,16.1052632 9.69871795,15.8940058 10.1346154,15.5771199 L16.6730769,10.0844298 C16.8910256,9.87317251 17,9.55628655 17,9.34502924 C17,8.92251462 16.7820513,8.60562865 16.5641026,8.39437135 Z M16.1282051,9.55628655 L9.69871795,15.0489766 C9.37179487,15.3658626 8.93589744,15.4714912 8.5,15.4714912 C8.17307692,15.4714912 7.73717949,15.4714912 7.30128205,15.0489766 L0.871794872,9.55628655 C0.762820513,9.45065789 0.762820513,9.34502924 0.762820513,9.23940058 C0.762820513,9.02814327 0.980769231,8.71125731 1.19871795,8.71125731 L3.59615385,8.71125731 L3.59615385,2.37353801 C3.59615385,2.05665205 3.70512821,1.84539474 3.81410256,1.73976608 C3.92307692,1.63413743 4.14102564,1.52850877 4.46794872,1.52850877 L12.6410256,1.52850877 C12.9679487,1.52850877 13.1858974,1.63413743 13.2948718,1.73976608 C13.4038462,1.84539474 13.5128205,2.05665205 13.5128205,2.37353801 L13.5128205,8.60562865 L15.6923077,8.60562865 C16.0192308,8.60562865 16.2371795,8.81688596 16.2371795,9.13377193 C16.2371795,9.34502924 16.2371795,9.55628655 16.1282051,9.55628655 Z" id="形状" fill="#358BFE"></path>
                <path d="M8.5,16.1052632 C7.85443038,16.1052632 7.3164557,15.8983172 6.77848101,15.5878983 L0.32278481,10.207304 C0.107594937,9.89688507 0,9.58646617 0,9.27604726 C0,8.65520945 0.430379747,8.13784461 0.96835443,8.03437164 C1.07594937,8.03437164 1.1835443,7.93089868 1.29113924,7.93089868 L2.68987342,7.93089868 L2.68987342,2.55030433 C2.68987342,2.03293949 2.79746835,1.61904762 3.12025316,1.30862871 C3.44303797,0.99820981 3.76582278,0.894736842 4.41139241,0.894736842 L12.4810127,0.894736842 C13.556962,0.894736842 14.2025316,1.41210168 14.2025316,2.55030433 L14.2025316,7.93089868 L15.7088608,7.93089868 C16.0316456,7.93089868 16.3544304,8.13784461 16.5696203,8.34479055 C16.7848101,8.55173648 17,8.96562836 17,9.27604726 C17,9.58646617 16.8924051,9.89688507 16.6772152,10.103831 L10.3291139,15.4844253 C9.79113924,15.8983172 9.14556962,16.1052632 8.5,16.1052632 Z M6.99367089,15.3809524 C7.42405063,15.6913713 7.96202532,15.8983172 8.5,15.8983172 C9.14556962,15.8983172 9.6835443,15.6913713 10.0063291,15.3809524 L16.3544304,10.000358 C16.5696203,9.7934121 16.5696203,9.58646617 16.5696203,9.27604726 C16.5696203,8.96562836 16.4620253,8.75868242 16.2468354,8.55173648 C16.0316456,8.34479055 15.8164557,8.24131758 15.4936709,8.24131758 L13.7721519,8.24131758 L13.7721519,2.55030433 C13.7721519,1.61904762 13.3417722,1.20515575 12.3734177,1.20515575 L4.51898734,1.20515575 C4.08860759,1.20515575 3.65822785,1.30862871 3.44303797,1.51557465 C3.2278481,1.72252059 3.12025316,2.03293949 3.12025316,2.55030433 L3.12025316,8.24131758 L1.07594937,8.24131758 C0.64556962,8.34479055 0.32278481,8.75868242 0.32278481,9.27604726 C0.32278481,9.4829932 0.430379747,9.7934121 0.64556962,10.000358 L6.99367089,15.3809524 L6.99367089,15.3809524 Z M8.5,15.4844253 C8.17721519,15.4844253 7.74683544,15.4844253 7.20886076,15.0705335 L0.860759494,9.68993913 C0.753164557,9.58646617 0.64556962,9.4829932 0.64556962,9.27604726 C0.64556962,8.96562836 0.860759494,8.65520945 1.1835443,8.65520945 L3.33544304,8.65520945 L3.33544304,2.55030433 C3.33544304,2.23988543 3.44303797,1.92946652 3.55063291,1.82599356 C3.65822785,1.72252059 3.98101266,1.61904762 4.30379747,1.61904762 L12.3734177,1.61904762 C12.6962025,1.61904762 13.0189873,1.72252059 13.1265823,1.82599356 C13.2341772,1.92946652 13.3417722,2.23988543 13.3417722,2.55030433 L13.3417722,8.55173648 L15.3860759,8.55173648 C15.8164557,8.55173648 16.0316456,8.86215539 16.0316456,9.27604726 C16.0316456,9.4829932 15.9240506,9.58646617 15.9240506,9.68993913 L9.57594937,15.0705335 C9.46835443,15.3809524 9.03797468,15.4844253 8.5,15.4844253 Z M13.1265823,2.03293949 C13.0189873,1.92946652 12.8037975,1.92946652 12.5886076,1.92946652 L4.51898734,1.92946652 C4.19620253,1.92946652 3.98101266,1.92946652 3.87341772,2.03293949 C3.76582278,2.13641246 3.76582278,2.3433584 3.76582278,2.55030433 L3.76582278,8.86215539 L1.39873418,8.86215539 L1.29113924,8.86215539 C1.07594937,8.96562836 0.96835443,9.06910132 0.96835443,9.27604726 C0.96835443,9.37952023 0.96835443,9.4829932 1.07594937,9.58646617 L7.42405063,14.8635875 C7.85443038,15.1740064 8.28481013,15.2774794 8.5,15.2774794 C8.93037975,15.2774794 9.36075949,15.1740064 9.57594937,14.8635875 L15.9240506,9.4829932 C16.0316456,9.4829932 16.0316456,9.37952023 16.0316456,9.27604726 C16.0316456,9.06910132 15.8164557,8.86215539 15.6012658,8.86215539 L13.3417722,8.86215539 L13.1265823,2.03293949 Z" id="形状" fill="#358BFE"></path>
                <path d="M11.2960526,9.00111586 L8.83552632,9.00111586 L8.83552632,7.78705598 L11.2960526,7.78705598 C11.5197368,7.78705598 11.6315789,7.68588432 11.6315789,7.48354101 C11.6315789,7.28119769 11.5197368,7.18002604 11.2960526,7.18002604 L8.94736842,7.18002604 L11.0723684,4.95424958 C11.1842105,4.85307792 11.1842105,4.65073461 11.0723684,4.54956295 C10.9605263,4.4483913 10.7368421,4.4483913 10.625,4.54956295 L8.5,6.87651107 L6.48684211,4.65073461 C6.375,4.54956295 6.15131579,4.54956295 6.03947368,4.65073461 C5.92763158,4.75190627 5.92763158,4.95424958 6.03947368,5.05542124 L8.16447368,7.28119769 L5.70394737,7.28119769 C5.48026316,7.28119769 5.36842105,7.38236935 5.36842105,7.58471267 C5.36842105,7.78705598 5.48026316,7.88822764 5.70394737,7.88822764 L8.16447368,7.88822764 L8.16447368,9.10228752 L5.70394737,9.10228752 C5.48026316,9.10228752 5.36842105,9.20345918 5.36842105,9.40580249 C5.36842105,9.60814581 5.48026316,9.70931746 5.70394737,9.70931746 L8.16447368,9.70931746 L8.16447368,11.328064 C8.16447368,11.5304073 8.27631579,11.6315789 8.5,11.6315789 C8.72368421,11.6315789 8.83552632,11.5304073 8.83552632,11.328064 L8.83552632,9.60814581 L11.2960526,9.60814581 C11.5197368,9.60814581 11.6315789,9.50697415 11.6315789,9.30463084 C11.6315789,9.10228752 11.5197368,9.00111586 11.2960526,9.00111586 L11.2960526,9.00111586 Z" id="路径" fill="#1C97E0"></path>
                <path d="M8.5,11.6315789 C8.28402904,11.6315789 8.06805808,11.4285181 8.06805808,11.2254573 L8.06805808,9.80403135 L5.80036298,9.80403135 C5.58439201,9.80403135 5.36842105,9.60097051 5.36842105,9.39790967 C5.36842105,9.19484882 5.58439201,8.99178798 5.80036298,8.99178798 L8.06805808,8.99178798 L8.06805808,8.07801418 L5.80036298,8.07801418 C5.58439201,8.07801418 5.36842105,7.87495334 5.36842105,7.6718925 C5.36842105,7.36730123 5.58439201,7.26577081 5.80036298,7.26577081 L7.74410163,7.26577081 L5.90834846,5.23516237 C5.90834846,5.13363195 5.80036298,5.03210153 5.80036298,4.82904069 C5.80036298,4.72751027 5.90834846,4.62597984 5.90834846,4.52444942 L6.34029038,4.52444942 C6.44827586,4.52444942 6.55626134,4.62597984 6.66424682,4.62597984 L8.5,6.7581187 L10.3357532,4.62597984 C10.4437387,4.422919 10.7676951,4.422919 10.9836661,4.62597984 C11.199637,4.82904069 11.199637,5.03210153 10.9836661,5.23516237 L9.25589837,7.26577081 L11.199637,7.26577081 C11.415608,7.26577081 11.6315789,7.46883165 11.6315789,7.6718925 C11.6315789,7.87495334 11.415608,8.07801418 11.199637,8.07801418 L8.93194192,8.07801418 L8.93194192,8.99178798 L11.199637,8.99178798 C11.415608,8.99178798 11.6315789,9.19484882 11.6315789,9.39790967 C11.6315789,9.60097051 11.415608,9.80403135 11.199637,9.80403135 L8.93194192,9.80403135 L8.93194192,11.2254573 C8.93194192,11.5300485 8.71597096,11.6315789 8.5,11.6315789 L8.5,11.6315789 Z M5.80036298,9.19484882 C5.6923775,9.19484882 5.58439201,9.29637925 5.58439201,9.39790967 C5.58439201,9.49944009 5.6923775,9.60097051 5.80036298,9.60097051 L8.28402904,9.60097051 L8.28402904,11.3269877 C8.28402904,11.4285181 8.39201452,11.5300485 8.5,11.5300485 C8.60798548,11.5300485 8.71597096,11.4285181 8.71597096,11.3269877 L8.71597096,9.60097051 L11.199637,9.60097051 C11.3076225,9.60097051 11.3076225,9.49944009 11.3076225,9.39790967 C11.3076225,9.29637925 11.199637,9.19484882 11.199637,9.19484882 L8.71597096,9.19484882 L8.71597096,7.77342292 L11.199637,7.77342292 C11.3076225,7.77342292 11.3076225,7.6718925 11.3076225,7.57036208 C11.3076225,7.46883165 11.199637,7.36730123 11.199637,7.36730123 L8.60798548,7.36730123 L10.8756806,4.93057111 C10.9836661,4.82904069 10.8756806,4.72751027 10.8756806,4.72751027 C10.7676951,4.62597984 10.6597096,4.72751027 10.6597096,4.72751027 L8.5,7.16424039 L6.44827586,4.82904069 C6.44827586,4.82904069 6.34029038,4.82904069 6.34029038,4.72751027 L6.2323049,4.72751027 L6.12431942,4.82904069 L6.12431942,4.93057111 L8.39201452,7.36730123 L5.80036298,7.36730123 C5.6923775,7.36730123 5.58439201,7.46883165 5.58439201,7.57036208 C5.58439201,7.6718925 5.6923775,7.77342292 5.80036298,7.77342292 L8.28402904,7.77342292 L8.28402904,9.19484882 L5.80036298,9.19484882 Z" id="形状" fill="#358BFE"></path>
            </g>
        </g>
    </g>
</svg>