<svg width="100" height="100" xmlns="http://www.w3.org/2000/svg"><defs><linearGradient x1="28.187%" y1="67.997%" x2="55.778%" y2="27.29%" id="a"><stop stop-color="#C2E651" offset="0%"/><stop stop-color="#8FC928" offset="100%"/></linearGradient><linearGradient x1="8.698%" y1="43.7%" x2="88.349%" y2="43.7%" id="b"><stop stop-color="#C1E54C" offset="0%"/><stop stop-color="#8DC725" offset="100%"/></linearGradient><linearGradient x1="41.938%" y1="67.556%" x2="61.839%" y2="26.756%" id="c"><stop stop-color="#B4DE46" offset="0%"/><stop stop-color="#8FC928" offset="100%"/></linearGradient></defs><g fill="none" fill-rule="evenodd"><path d="M51.705 42.36l24.124-8.923c.951.03 1.427.44 1.427 1.233 0 .793.085 12.601.255 35.425-.139.636-.614.954-1.427.954-.813 0-8.737-3.734-23.772-11.2-.404.068-.607-.154-.607-.665V42.36z" fill="url(#a)"/><path d="M25.943 29.657l26.737-9.513a1 1 0 01.788.05l21.494 10.91a1 1 0 01-.106 1.83l-25.833 9.564a1 1 0 01-.787-.04l-22.397-10.96a1 1 0 01.104-1.841z" fill="url(#b)"/><path d="M22.235 32.7c.419-.799.98-1.125 1.686-.98.706.146 8.235 3.788 22.588 10.926.798.366 1.196.898 1.196 1.599V80.55c-.22.418-.73.522-1.528.313-.798-.209-8.289-3.705-22.472-10.49-.667-.114-1.157-.458-1.47-1.03-.313-.573-.313-12.788 0-36.645z" fill="url(#c)"/><circle stroke="#CCC" cx="50" cy="50" r="45"/></g></svg>