<?xml version="1.0" standalone="no"?><!DOCTYPE svg PUBLIC "-//W3C//DTD SVG 1.1//EN" "http://www.w3.org/Graphics/SVG/1.1/DTD/svg11.dtd"><svg t="1565085426601" class="icon" viewBox="0 0 1024 1024" version="1.1" xmlns="http://www.w3.org/2000/svg" p-id="2103" xmlns:xlink="http://www.w3.org/1999/xlink" width="200" height="200"><defs><style type="text/css"></style></defs><path d="M503.808 511.488m-478.72 0a478.72 478.72 0 1 0 957.44 0 478.72 478.72 0 1 0-957.44 0Z" fill="#358BFE" p-id="2104"></path><path d="M633.856 474.624c30.72 0.512 56.32-24.064 56.832-54.784 0.512-30.72-24.064-56.32-54.784-56.832h-2.048c-30.72 0.512-55.296 26.112-54.784 56.832 0.512 29.696 25.088 54.272 54.784 54.784z m97.792-186.368H275.456c-17.92 0-32.768 14.848-32.768 32.768v380.928c0 17.92 14.336 32.768 32.768 32.768h456.192c17.92 0 32.768-14.848 32.768-32.768V321.024c0-17.92-14.336-32.768-32.768-32.768z m-119.808 229.888c-3.584-4.608-9.216-7.168-14.848-7.168-6.144 0-10.24 2.56-14.848 6.656l-22.016 18.432c-4.608 3.072-8.192 5.632-13.312 5.632-4.608 0-9.216-1.536-12.8-4.608-1.536-1.536-3.584-3.072-5.12-4.608L466.432 464.384c-5.12-5.632-11.776-8.704-19.456-8.704s-14.848 4.096-19.456 9.216l-147.456 177.664V338.944c1.024-7.68 7.168-13.824 15.36-13.824H711.68c8.192 0 14.336 6.144 14.848 13.824l0.512 303.104-115.2-123.904z" fill="#FFFFFF" p-id="2105"></path></svg>