<?xml version="1.0" standalone="no"?><!DOCTYPE svg PUBLIC "-//W3C//DTD SVG 1.1//EN" "http://www.w3.org/Graphics/SVG/1.1/DTD/svg11.dtd"><svg t="1563531457922" class="icon" viewBox="0 0 1029 1024" version="1.1" xmlns="http://www.w3.org/2000/svg" p-id="2544" xmlns:xlink="http://www.w3.org/1999/xlink" width="200.9765625" height="200"><defs><style type="text/css"></style></defs><path d="M514.56 509.44m-473.6 0a473.6 473.6 0 1 0 947.2 0 473.6 473.6 0 1 0-947.2 0Z" fill="#FFFFFF" p-id="2545"></path><path d="M514.56 995.84c-268.288 0-486.4-218.112-486.4-486.4s218.112-486.4 486.4-486.4 486.4 218.112 486.4 486.4-218.112 486.4-486.4 486.4z m0-947.2c-253.952 0-460.8 206.848-460.8 460.8s206.848 460.8 460.8 460.8 460.8-206.848 460.8-460.8-206.848-460.8-460.8-460.8z" fill="#E2E2E2" p-id="2546"></path><path d="M414.72 261.12h122.88v30.72H414.72zM678.4 506.88c-67.584 0-122.88-55.296-122.88-122.88s55.296-122.88 122.88-122.88 122.88 55.296 122.88 122.88-55.296 122.88-122.88 122.88z m0-215.04c-50.688 0-92.16 41.472-92.16 92.16s41.472 92.16 92.16 92.16 92.16-41.472 92.16-92.16-41.472-92.16-92.16-92.16zM412.16 773.12c-67.584 0-122.88-55.296-122.88-122.88s55.296-122.88 122.88-122.88 122.88 55.296 122.88 122.88-55.296 122.88-122.88 122.88z m0-215.04c-50.688 0-92.16 41.472-92.16 92.16s41.472 92.16 92.16 92.16 92.16-41.472 92.16-92.16-41.472-92.16-92.16-92.16z" fill="#0D48EE" p-id="2547"></path><path d="M412.16 506.88c-67.584 0-122.88-55.296-122.88-122.88s55.296-122.88 122.88-122.88 122.88 55.296 122.88 122.88-55.296 122.88-122.88 122.88z m0-215.04c-50.688 0-92.16 41.472-92.16 92.16s41.472 92.16 92.16 92.16 92.16-41.472 92.16-92.16-41.472-92.16-92.16-92.16z" fill="#0D48EE" p-id="2548"></path></svg>