<?xml version="1.0" standalone="no"?><!DOCTYPE svg PUBLIC "-//W3C//DTD SVG 1.1//EN" "http://www.w3.org/Graphics/SVG/1.1/DTD/svg11.dtd"><svg t="1563531451705" class="icon" viewBox="0 0 1024 1024" version="1.1" xmlns="http://www.w3.org/2000/svg" p-id="2432" xmlns:xlink="http://www.w3.org/1999/xlink" width="200" height="200"><defs><style type="text/css"></style></defs><path d="M1008.64 509.44c0 272.896-221.184 494.08-494.08 494.08S20.48 782.336 20.48 509.44 241.664 15.36 514.56 15.36 1008.64 236.544 1008.64 509.44z" p-id="2433"></path><path d="M202.752 368.128s0-9.216 9.216-9.216h183.808s18.432 0 18.432 18.432l-9.216 128.512s0 27.648-36.864 27.648H285.184s-9.216 0-9.216 9.216l-9.216 82.944s0 9.216-18.432 9.216h-46.08s-18.432 0-18.432-9.216l18.944-257.536z m146.944 96.256v-45.568c0-2.56-2.048-4.608-4.608-4.608H281.088c-2.56 0-4.608 2.048-4.608 4.608v45.568c0 2.56 2.048 4.608 4.608 4.608h64c2.56 0 4.608-2.048 4.608-4.608z m64.512 160.768c0 9.216 9.216 9.216 9.216 9.216h64.512c9.216 0 9.216-9.216 9.216-9.216v-73.728c0-9.216 9.216-9.216 9.216-9.216H588.8c18.432 0 18.432-9.216 18.432-9.216V478.208c0-9.216-9.216-9.216-9.216-9.216h-82.944c-9.216 0-9.216-9.216-9.216-9.216v-18.432c0-9.216 9.216-9.216 9.216-9.216h91.648c9.216 0 9.216-9.216 9.216-9.216V368.128c0-9.216-9.216-9.216-9.216-9.216H441.344c-9.216 0-9.216 18.432-9.216 18.432l-17.92 247.808z m220.16-202.24c0 9.216 9.216 9.216 9.216 9.216h46.08c9.216 0 9.216 9.216 9.216 9.216l-18.432 183.808c0 9.216 9.216 9.216 9.216 9.216h64.512c9.216 0 9.216-9.216 9.216-9.216l9.216-183.808c0-9.216 9.216-9.216 9.216-9.216h64.512c9.216 0 9.216-9.216 9.216-9.216V368.128c0-9.216-9.216-9.216-9.216-9.216h-202.24c-9.216 0-9.216 9.216-9.216 9.216v54.784z" fill="#F5B429" p-id="2434"></path></svg>