<?xml version="1.0" standalone="no"?><!DOCTYPE svg PUBLIC "-//W3C//DTD SVG 1.1//EN" "http://www.w3.org/Graphics/SVG/1.1/DTD/svg11.dtd"><svg t="1563531470153" class="icon" viewBox="0 0 1024 1024" version="1.1" xmlns="http://www.w3.org/2000/svg" p-id="2658" xmlns:xlink="http://www.w3.org/1999/xlink" width="200" height="200"><defs><style type="text/css"></style></defs><path d="M988.672 495.616c0 265.216-215.04 480.768-480.768 480.768s-480.768-215.04-480.768-480.768 215.04-480.768 480.768-480.768 480.768 215.552 480.768 480.768zM206.336 271.36c-18.944 0-34.816 15.36-34.816 34.816s15.36 34.816 34.816 34.816 34.816-15.36 34.816-34.816S225.28 271.36 206.336 271.36z m-59.904 249.344H179.2V353.792h-32.768v166.912z m45.568 126.464h32.768v-126.464h32.768V353.792H192v293.376z m86.528-22.528c0.512 9.728 17.92 22.528 17.92 22.528h29.696c12.8-3.072 17.92-21.504 17.92-21.504V362.496c0.512-11.264-16.384-15.872-16.384-15.872h-34.304c-6.144 0.512-14.848 15.872-14.848 15.872V624.64z m92.16-270.848v281.6c0 5.12 3.584 11.776 3.584 11.776h12.8c8.192-1.536 5.632-11.776 5.632-11.776l-0.512-108.544h29.696c10.24-1.024 13.312-13.312 13.312-13.312V369.152c1.024-8.192-13.312-15.36-13.312-15.36h-51.2z m19.456 149.504h20.992V372.736h-20.992v130.56z m103.936 104.96h-18.432l0.512-258.048h-25.088s-1.024 252.416 0 272.384c1.024 20.48 21.504 24.064 21.504 24.064h27.648c16.384-3.072 20.992-20.992 20.992-20.992V350.208h-26.112l-1.024 258.048z m46.08 38.912h46.592v-20.992c-16.896 0-18.432-15.872-18.432-15.872V350.208h-25.088l-3.072 296.96z m64.512-18.944c0.512 9.728 17.92 22.528 17.92 22.528h29.696c12.8-3.072 17.92-21.504 17.92-21.504V366.08c0.512-11.264-16.384-15.872-16.384-15.872H619.52c-6.144 0.512-14.848 15.872-14.848 15.872v262.144z m129.024-22.016h-18.432l0.512-258.048h-25.088s-1.024 252.416 0 272.384c1.024 20.48 21.504 24.064 21.504 24.064h27.648c16.384-3.072 20.992-20.992 20.992-20.992V348.16h-26.112l-1.024 258.048z m86.016-150.016h33.28V372.736s2.56-26.112-39.424-26.112c0 0-35.328-3.072-35.84 26.112v110.592l48.64 33.28-2.56 92.16h-18.432v-90.112H778.24v100.352s5.12 21.504 19.456 25.6h39.936s13.824-8.192 15.872-22.016V507.904l-48.64-34.304V372.736h14.336l0.512 83.456zM626.688 629.76h21.504V376.832h-21.504V629.76zM321.024 385.024h-19.968v223.232h19.968V385.024z m326.144 0h-19.968v222.208h19.968V385.024z" fill="#062F45" p-id="2659"></path><path d="M243.2 305.664c0 19.456-15.872 35.328-35.328 35.328s-35.328-15.872-35.328-35.328 15.872-35.328 35.328-35.328 35.328 15.872 35.328 35.328z m-96.768 215.04H179.2V353.792h-32.768v166.912z" fill="#CEDD43" p-id="2660"></path></svg>