<?xml version="1.0" encoding="UTF-8"?>
<svg width="17px" height="17px" viewBox="0 0 17 17" version="1.1" xmlns="http://www.w3.org/2000/svg" xmlns:xlink="http://www.w3.org/1999/xlink">
    <!-- Generator: Sketch 55.1 (78136) - https://sketchapp.com -->
    <title>转账</title>
    <desc>Created with Sketch.</desc>
    <g id="页面1" stroke="none" stroke-width="1" fill="none" fill-rule="evenodd">
        <g id="转入" transform="translate(-242.000000, -638.000000)">
            <rect id="矩形" fill="#FFFFFF" x="0" y="0" width="375" height="667"></rect>
            <rect id="矩形" fill="#F5F5F5" x="0" y="623" width="375" height="44"></rect>
            <g id="转账" transform="translate(242.000000, 638.000000)" fill="#368BFE" fill-rule="nonzero">
                <rect id="矩形" opacity="0" x="0" y="0" width="17" height="17"></rect>
                <path d="M8.80287841,7.63889095 C8.71851116,7.63889095 8.59196029,7.59670732 8.50759306,7.51234008 L6.10312655,5.23442445 C5.93439206,5.06568995 5.89220843,4.81258822 6.06094293,4.64385373 C6.22967743,4.47511923 6.48277915,4.47511923 6.65151365,4.64385373 L8.76069478,6.66866763 L10.9964268,4.51730287 C11.1651613,4.34856837 11.418263,4.34856837 11.5869975,4.51730287 C11.755732,4.68603737 11.755732,4.93913909 11.5869975,5.10787359 L9.05598014,7.51234009 C9.01379653,7.59670732 8.88724566,7.63889095 8.80287841,7.63889095 Z M11.755732,7.7654418 L5.93439206,7.7654418 C5.68129031,7.7654418 5.51255583,7.59670731 5.51255583,7.34360558 C5.51255583,7.09050385 5.68129033,6.92176936 5.93439206,6.92176936 L11.7135484,6.92176936 C11.9666501,6.92176936 12.1353846,7.09050385 12.1353846,7.34360558 C12.1353846,7.59670731 11.9666501,7.7654418 11.755732,7.7654418 Z M11.755732,10.2964592 L5.93439206,10.2964592 C5.68129031,10.2964592 5.51255583,10.1277247 5.51255583,9.87462296 C5.51255583,9.62152123 5.68129033,9.45278673 5.93439206,9.45278673 L11.7135484,9.45278673 C11.9666501,9.45278673 12.1353846,9.62152123 12.1353846,9.87462296 C12.1353846,10.1277247 11.9666501,10.2964592 11.755732,10.2964592 Z M8.84506203,12.8274766 C8.59196029,12.8274766 8.42322581,12.6587421 8.42322581,12.4056403 L8.42322581,7.59670732 C8.42322581,7.34360558 8.5919603,7.1748711 8.84506203,7.1748711 C9.09816376,7.1748711 9.26689826,7.3436056 9.26689826,7.59670732 L9.26689826,12.4056403 C9.26689826,12.6587421 9.09816378,12.8274766 8.84506203,12.8274766 Z M7.78287841,17 C7.69851116,17 7.61414391,16.9578164 7.52977666,16.9156328 L5.84243175,15.5657568 C5.71588088,15.4392059 5.63151363,15.2704715 5.71588088,15.101737 C5.7580645,14.9330025 5.926799,14.8064516 6.09553348,14.8064516 L13.8151365,14.8064516 C14.2791563,14.8064516 14.7009925,14.6377171 14.9962779,14.3002481 C15.2915633,14.0049628 15.4602977,13.5831266 15.4602977,13.1612903 L15.4181141,7.33995038 C15.4181141,7.08684864 15.5868486,6.91811416 15.8399503,6.91811416 L15.8399503,6.91811416 C16.0508685,6.91811416 16.2617866,7.08684865 16.2617866,7.33995038 L16.3039702,13.1612903 C16.3039702,13.8362283 16.0508685,14.4689826 15.5868486,14.9751861 C15.1228288,15.439206 14.4900744,15.7344913 13.8151364,15.7344913 L7.27667494,15.7344913 L8.03598015,16.325062 C8.20471465,16.4516129 8.24689827,16.7468983 8.1203474,16.9156328 C8.03598015,16.9578164 7.90942928,17 7.78287841,17 Z M1.28660049,10.1662531 C1.07568237,10.1662531 0.864764268,9.99751861 0.864764268,9.74441688 L0.78039702,3.92307692 C0.78039702,3.24813895 1.03349876,2.61538461 1.49751861,2.10918113 C2.00372208,1.64516129 2.63647643,1.34987592 3.31141439,1.34987592 L9.80769231,1.34987592 L9.0483871,0.759305199 C8.8796526,0.632754327 8.83746898,0.337468976 8.96401985,0.168734479 C9.09057072,-1.66015618e-08 9.38585607,-0.0421836406 9.55459057,0.0843672314 L11.2419355,1.43424317 C11.3684864,1.56079404 11.4528536,1.72952852 11.3684864,1.89826301 C11.2841191,2.06699751 11.1997519,2.19354838 11.0310174,2.19354838 L3.31141439,2.19354838 C2.84739455,2.19354838 2.42555832,2.4044665 2.13027296,2.69975185 C1.79280396,3.03722085 1.62406948,3.45905707 1.62406948,3.88089329 L1.66625311,9.70223324 C1.70843673,9.95533499 1.49751861,10.1662531 1.28660049,10.1662531 L1.28660049,10.1662531 Z" id="形状"></path>
            </g>
        </g>
    </g>
</svg>