<?xml version="1.0" encoding="utf-8"?>
<!-- Generator: Adobe Illustrator 21.0.0, SVG Export Plug-In . SVG Version: 6.00 Build 0)  -->
<svg version="1.1" id="图层_1" xmlns="http://www.w3.org/2000/svg" xmlns:xlink="http://www.w3.org/1999/xlink" x="0px" y="0px"
	 viewBox="0 0 100 100" style="enable-background:new 0 0 100 100;" xml:space="preserve">
<style type="text/css">
	.st0{fill:#FFFFFF;}
	.st1{fill:#E2E2E2;}
	.st2{fill:none;stroke:#009FF8;stroke-width:1.5;stroke-miterlimit:10;}
	.st3{fill:#009FF8;}
</style>
<g id="椭圆形">
	<g>
		<circle class="st0" cx="50" cy="50" r="47.7"/>
		<path class="st1" d="M50,99C23,99,1,77,1,50S23,1,50,1s49,22,49,49S77,99,50,99z M50,3.6C24.4,3.6,3.6,24.4,3.6,50
			S24.4,96.4,50,96.4S96.4,75.6,96.4,50S75.6,3.6,50,3.6z"/>
	</g>
</g>
<polygon class="st2" points="41.3,23.4 58.1,23.4 71.8,33 77.4,49.9 71.8,66 58.1,76.4 41.3,76.4 26.8,66 21.2,49.9 26.8,33 "/>
<polygon class="st2" points="49.3,34.6 58.1,49.9 49.3,65.2 40.5,49.9 "/>
<path class="st2" d="M41.1,23.9l-6.2,13.2l5.6,12.8l8.8-15.3l-7.7-10.8C41.4,23.6,41.1,23.7,41.1,23.9z"/>
<path class="st2" d="M57.3,24.5l-8,10.2l14.5,2.4l-5.1-12.4C58.4,24.1,57.7,24,57.3,24.5z"/>
<line class="st2" x1="21.2" y1="49.9" x2="77.4" y2="49.9"/>
<polygon class="st2" points="63.7,37.1 58.1,49.9 63.7,62.7 71.1,49.9 "/>
<polygon class="st2" points="34.8,37.1 27.6,49.9 34.8,62.7 40.5,49.9 "/>
<path class="st2" d="M42,75.3l7.3-10.2l-14.5-2.4l5.9,12.5C41,75.7,41.7,75.8,42,75.3z"/>
<path class="st2" d="M49.3,65.2l8,10.2c0.3,0.4,1,0.3,1.3-0.2l5.1-12.5L49.3,65.2z"/>
<path class="st2" d="M28.2,33.7l6.3,3.2C34.7,37,35,37,35.2,37l14-2.3c0.1,0,0.2,0,0.3,0l14,2.3c0.2,0,0.4,0,0.6-0.1l6.3-3.2
	c0.6-0.3,1.4,0.1,1.4,0.9v30.5c0,0.4-0.4,0.6-0.7,0.5l-7-2.8c-0.2-0.1-0.3-0.1-0.5-0.1l-14,2.3c-0.1,0-0.2,0-0.3,0l-14-2.3
	c-0.2,0-0.4,0-0.5,0.1l-6.4,2.6c-0.6,0.3-1.3-0.2-1.3-0.9V34.6C26.8,33.9,27.6,33.4,28.2,33.7z"/>
<circle class="st3" cx="40.9" cy="23" r="2"/>
<circle class="st3" cx="57.7" cy="23" r="2"/>
<circle class="st3" cx="71.6" cy="33.4" r="2"/>
<circle class="st3" cx="77.8" cy="50.3" r="2"/>
<circle class="st3" cx="64.1" cy="36.7" r="2"/>
<ellipse transform="matrix(0.8479 -0.5302 0.5302 0.8479 -15.772 45.6356)" class="st3" cx="71.6" cy="50.3" rx="2" ry="2"/>
<circle class="st3" cx="27.2" cy="33.4" r="2"/>
<ellipse transform="matrix(0.8479 -0.5302 0.5302 0.8479 -22.5296 22.0833)" class="st3" cx="27.2" cy="50.3" rx="2" ry="2"/>
<ellipse transform="matrix(0.8479 -0.5302 0.5302 0.8479 -30.6169 24.4037)" class="st3" cx="27.2" cy="65.6" rx="2" ry="2"/>
<circle class="st3" cx="41.7" cy="76" r="2"/>
<circle class="st3" cx="58.5" cy="76" r="2"/>
<circle class="st3" cx="20.8" cy="50.3" r="2"/>
<circle class="st3" cx="48.9" cy="35" r="2"/>
<circle class="st3" cx="35.2" cy="37.5" r="2"/>
<circle class="st3" cx="40.1" cy="50.3" r="2"/>
<ellipse transform="matrix(0.8479 -0.5302 0.5302 0.8479 -17.7667 38.6835)" class="st3" cx="58.5" cy="50.3" rx="2" ry="2"/>
<circle class="st3" cx="35.2" cy="63.1" r="2"/>
<circle class="st3" cx="48.9" cy="64.8" r="2"/>
<circle class="st3" cx="63.3" cy="62.3" r="2"/>
<line class="st2" x1="71.8" y1="66" x2="78.2" y2="72.4"/>
<circle class="st3" cx="78.6" cy="72.8" r="3.6"/>
</svg>
