<?xml version="1.0" standalone="no"?><!DOCTYPE svg PUBLIC "-//W3C//DTD SVG 1.1//EN" "http://www.w3.org/Graphics/SVG/1.1/DTD/svg11.dtd"><svg t="1562142936850" class="icon" viewBox="0 0 1024 1024" version="1.1" xmlns="http://www.w3.org/2000/svg" p-id="8217" xmlns:xlink="http://www.w3.org/1999/xlink" width="200" height="200"><defs><style type="text/css"></style></defs><path d="M512 972.8a460.8 460.8 0 1 0 0-921.6 460.8 460.8 0 0 0 0 921.6z m-201.5232-179.7632l117.3504-120.2176 75.5712 77.4656L386.048 870.4l-75.6224-77.3632z m74.0352-200.96l75.6224-77.4144 265.6768 272.0768-75.6224 77.4144-265.728-272.0768z m298.1376 9.216l75.6224-77.4144L870.4 638.6688l-75.5712 77.4144-112.1792-114.8416z m-65.5872 32.6144l-75.6224-77.4144 236.6976-242.2784 75.5712 77.4144-236.6464 242.2784zM182.528 385.3312l75.6224-77.4144L346.4192 398.336 270.848 475.7504 182.528 385.3312z m462.08 22.1696l-75.6224 77.4144L327.168 237.312l75.5712-77.4144L644.608 407.552z m52.224-176.4864L601.4976 328.704 525.824 251.2384 621.2096 153.6l75.6736 77.4144zM153.6 632.4224l261.6832-267.9296L490.9056 441.856l-261.6832 267.9296L153.6 632.4224z" fill="#00AFE5" p-id="8218"></path></svg>