<?xml version="1.0" encoding="utf-8"?>
<!-- Generator: Adobe Illustrator 21.0.0, SVG Export Plug-In . SVG Version: 6.00 Build 0)  -->
<svg version="1.1" id="图层_1" xmlns="http://www.w3.org/2000/svg" xmlns:xlink="http://www.w3.org/1999/xlink" x="0px" y="0px"
	 viewBox="0 0 100 100" style="enable-background:new 0 0 100 100;" xml:space="preserve">
<style type="text/css">
	.st0{fill:#FFFFFF;}
	.st1{fill:#E2E2E2;}
	.st2{fill:none;stroke:#6E6E6E;stroke-width:2;stroke-miterlimit:10;}
</style>
<g id="椭圆形">
	<g>
		<circle class="st0" cx="49.5" cy="52.5" r="43.3"/>
		<path class="st1" d="M49.5,97C25,97,5,77,5,52.5S25,8,49.5,8S94,28,94,52.5S74,97,49.5,97z M49.5,10.3
			c-23.2,0-42.2,18.9-42.2,42.2s18.9,42.2,42.2,42.2s42.2-18.9,42.2-42.2S72.7,10.3,49.5,10.3z"/>
	</g>
</g>
<path class="st2" d="M50.9,18.5l26.4,46.1c0.4,0.8,0.2,1.8-0.6,2.2L50.9,82.5c-0.5,0.3-1.2,0.3-1.7,0L23.4,66.8
	c-0.8-0.5-1-1.4-0.6-2.2l26.4-46.1C49.5,17.8,50.5,17.8,50.9,18.5z"/>
<path class="st2" d="M50,19v17c0,0,0,7-5,8c0,0-9,2-7,13"/>
<path class="st2" d="M53,44c0,0,7-1,9,9c0,0,1,6,5,8l10.3,5"/>
<path class="st2" d="M60,61c0,0-4,5-8,7c0,0-2,1-2,3v11"/>
<path class="st2" d="M23,66c0,0,11-8,15-5c0,0,7,6,9,6"/>
</svg>
