<?xml version="1.0" encoding="utf-8"?>
<!-- Generator: Adobe Illustrator 21.0.0, SVG Export Plug-In . SVG Version: 6.00 Build 0)  -->
<svg version="1.1" id="图层_1" xmlns="http://www.w3.org/2000/svg" xmlns:xlink="http://www.w3.org/1999/xlink" x="0px" y="0px"
	 viewBox="0 0 200 200" style="enable-background:new 0 0 200 200;" xml:space="preserve">
<style type="text/css">
	.st0{fill:url(#SVGID_1_);}
</style>
<linearGradient id="SVGID_1_" gradientUnits="userSpaceOnUse" x1="20" y1="99.0822" x2="172.9016" y2="99.0822">
	<stop  offset="0" style="stop-color:#6989FF"/>
	<stop  offset="0.612" style="stop-color:#64BCFF"/>
</linearGradient>
<path class="st0" d="M168.1,172.1c-14.7,20.4-58.7,13.9-98.3-14.5c-39.6-28.5-59.7-68.1-45-88.5c9.9-13.7,32.9-15.3,58.9-6.3L77,152
	h29c0,0,8,1,10-11l4.9-59c0.7,0.5,1.4,1,2.2,1.5C162.6,112,182.8,151.6,168.1,172.1z M89.8,45.6l-8.6,102.6h22.7
	c6.5,0,8.1-8.3,8.1-8.3l8.6-94.9h3.2h28.1c8.6-1.1,9.7-8.8,9.7-8.8l1.1-22.1H61.2c-10.8,0-9.7,9.9-9.7,9.9l-1.1,21L89.8,45.6z"/>
</svg>
