<?xml version="1.0" standalone="no"?><!DOCTYPE svg PUBLIC "-//W3C//DTD SVG 1.1//EN" "http://www.w3.org/Graphics/SVG/1.1/DTD/svg11.dtd"><svg t="1563531429419" class="icon" viewBox="0 0 1029 1024" version="1.1" xmlns="http://www.w3.org/2000/svg" p-id="2319" xmlns:xlink="http://www.w3.org/1999/xlink" width="200.9765625" height="200"><defs><style type="text/css"></style></defs><path d="M1013.76 514.56c0 272.896-221.184 494.08-494.08 494.08S25.6 787.456 25.6 514.56 246.784 20.48 519.68 20.48 1013.76 241.664 1013.76 514.56" p-id="2320"></path><path d="M477.184 871.936L238.592 208.896l450.56 120.32L793.6 402.432l-316.416 469.504zM263.168 231.424L481.28 838.144l291.328-431.616-90.112-62.976-419.328-112.128z" fill="#FFFFFF" p-id="2321"></path><path d="M485.888 845.824l-10.24-1.536 40.96-305.152-269.824-315.904 8.192-6.144 272.896 318.976zM531.968 537.088l-6.144-7.68L680.96 336.896l8.192 6.656-140.288 173.568 225.28-115.712 4.608 9.216z" fill="#FFFFFF" p-id="2322"></path></svg>